<svg xmlns="http://www.w3.org/2000/svg" viewBox="0 0 64 64" fill="none">
  <defs>
    <linearGradient id="g" x1="8" y1="8" x2="56" y2="56" gradientUnits="userSpaceOnUse">
      <stop stop-color="#0078D4"/>
      <stop offset="1" stop-color="#22D3EE"/>
    </linearGradient>
  </defs>
  <rect width="64" height="64" rx="16" fill="#0B1120"/>
  <rect x="7" y="7" width="50" height="50" rx="13" fill="url(#g)" fill-opacity="0.14" stroke="url(#g)" stroke-width="2"/>
  <path d="M24 43l2-6h12l2 6h4l-10-22h-4L20 43h4zm8.2-15.5L36 34h-8l4.2-6.5z" fill="#EAF6FF"/>
  <path d="M44.5 29.5H52v11.2c-2.1 1.8-5.1 2.8-8.4 2.8-6.6 0-11-4.3-11-10.4 0-6 4.5-10.4 10.7-10.4 3.6 0 6.5 1.3 8.3 3.7l-3.4 2.3c-1.2-1.4-2.8-2-4.8-2-3.7 0-6.4 2.7-6.4 6.4 0 3.9 2.8 6.6 6.8 6.6 1.3 0 2.5-.2 3.5-.8v-3.1h-4.3v-3.2z" fill="#22D3EE"/>
  <circle cx="49" cy="17" r="3" fill="#22D3EE"/>
</svg>
